# xmcd
#
# Track frame offsets:
#	150
#	14755
#	22304
#	28100
#	35377
#	41315
#	55627
#	63597
#	69685
#	75772
#	83526
#	94356
#	100297
#	106593
#	111681
#	118404
#	127804
#	136342
#	141550
#	149918
#	156643
#	167248
#	187813
#	201839
#
# Disc length: 2891 seconds
#
# Revision: 1
# Processed by: cddbd v1.5.2PL0 Copyright (c) Steve Scherf et al.
# Submitted via: EasyCDDAExtractor 16.0.8.2
#
DISCID=630b4918
DTITLE=Συλλογικός δίσκος - Oldies but goodies 12
DYEAR=2010
DGENRE=Ποικίλη
TTITLE0=Αλεξοπούλου Μαίρη - La bambola [ελλ. απόδ. Νότης Κύτταρης]
TTITLE1=Τζορντανέλλι Λάκης-Καπούγια Ζανέτ - A casa d'Irene
TTITLE2=Τζορντανέλλι Λάκης - La fuga
TTITLE3=Τζορντανέλλι Λάκης - Se le cose stanno cosi
TTITLE4=Τζορντανέλλι Λάκης - Lontano dagli occhi
TTITLE5=Τζορντανέλλι Λάκης - Amore scusami
TTITLE6=Τζορντανέλλι Λάκης - Cuore matto
TTITLE7=Τζορντανέλλι Λάκης - Bisogno sapertere
TTITLE8=Τζορντανέλλι Λάκης - Piangi con me
TTITLE9=Τζορντανέλλι Λάκης - Io ho te
TTITLE10=Τζορντανέλλι Λάκης - Il giocatolo
TTITLE11=Τζορντανέλλι Λάκης - Lala la la la
TTITLE12=Τζορντανέλλι Λάκης - A Saint Tropez
TTITLE13=Τζορντανέλλι Λάκης - Stasera mi butto
TTITLE14=Τζορντανέλλι Λάκης-Καπούγια Ζανέτ - Made in Italy
TTITLE15=Τζορντανέλλι Λάκης-Καπούγια Ζανέτ - Mama Maria
TTITLE16=Τζορντανέλλι Λάκης - Melancolia
TTITLE17=Τζορντανέλλι Λάκης - Roberta
TTITLE18=Τζορντανέλλι Λάκης-Καπούγια Ζανέτ - Teresa
TTITLE19=Τζορντανέλλι Λάκης - La prima cosa bella
TTITLE20=Τζορντανέλλι Λάκης-Καπούγια Ζανέτ - Che sara
TTITLE21=Τζορντανέλλι Λάκης - Βουλέ βου (Voulez vous)[ελλ. απόδ. Σέβη Τηλιακού
TTITLE21=]
TTITLE22=Καρύδας Κώστας - Candida
TTITLE23=The Forminx - Our last September [Β. Παπαθανασίου-Ν. Μαστοράκης]
EXTD=
EXTT0=
EXTT1=
EXTT2=
EXTT3=
EXTT4=
EXTT5=
EXTT6=
EXTT7=
EXTT8=
EXTT9=
EXTT10=
EXTT11=
EXTT12=
EXTT13=
EXTT14=
EXTT15=
EXTT16=
EXTT17=
EXTT18=
EXTT19=
EXTT20=
EXTT21=
EXTT22=
EXTT23=
PLAYORDER=
